<svg xmlns="http://www.w3.org/2000/svg" xmlns:xlink="http://www.w3.org/1999/xlink" version="1.1" width="1000" height="1000" viewBox="0 0 1000 1000" xml:space="preserve">
<desc>Created with Fabric.js 3.5.0</desc>
<defs>
</defs>
<rect x="0" y="0" width="100%" height="100%" fill="#ffffff"/>
<g transform="matrix(1 0 0 1 57.4545 57.4545)" id="201370">
<g style="" vector-effect="non-scaling-stroke">
		<g transform="matrix(1 0 0 1 0 -6)" id="exit2">
<path style="stroke: none; stroke-width: 1; stroke-dasharray: none; stroke-linecap: butt; stroke-dashoffset: 0; stroke-linejoin: miter; stroke-miterlimit: 4; is-custom-font: none; font-file-url: none; fill: rgb(0,0,0); fill-rule: nonzero; opacity: 1;" transform=" translate(-12, -6)" d="M 12 10 c 1.1 0 2 -0.9 2 -2 V 4 c 0 -1.1 -0.9 -2 -2 -2 s -2 0.9 -2 2 v 4 C 10 9.1 10.9 10 12 10 z" stroke-linecap="round"/>
</g>
		<g transform="matrix(1 0 0 1 0 1.25)" id="exit2">
<path style="stroke: none; stroke-width: 1; stroke-dasharray: none; stroke-linecap: butt; stroke-dashoffset: 0; stroke-linejoin: miter; stroke-miterlimit: 4; is-custom-font: none; font-file-url: none; fill: rgb(0,0,0); fill-rule: nonzero; opacity: 1;" transform=" translate(-12, -13.25)" d="M 19.1 4.9 L 19.1 4.9 c -0.3 -0.3 -0.6 -0.4 -1.1 -0.4 c -0.8 0 -1.5 0.7 -1.5 1.5 c 0 0.4 0.2 0.8 0.4 1.1 l 0 0 c 0 0 0 0 0 0 c 0 0 0 0 0 0 c 1.3 1.3 2 3 2 4.9 c 0 3.9 -3.1 7 -7 7 s -7 -3.1 -7 -7 c 0 -1.9 0.8 -3.7 2.1 -4.9 l 0 0 C 7.3 6.8 7.5 6.4 7.5 6 c 0 -0.8 -0.7 -1.5 -1.5 -1.5 c -0.4 0 -0.8 0.2 -1.1 0.4 l 0 0 C 3.1 6.7 2 9.2 2 12 c 0 5.5 4.5 10 10 10 s 10 -4.5 10 -10 C 22 9.2 20.9 6.7 19.1 4.9 z" stroke-linecap="round"/>
</g>
</g>
</g>
</svg>